<?xml version="1.0" encoding="UTF-8"?>
<svg id="_Слой_1" data-name="Слой 1" xmlns="http://www.w3.org/2000/svg" xmlns:xlink="http://www.w3.org/1999/xlink" viewBox="0 0 200 200">
  <defs>
    <style>
      .cls-1 {
        fill: url(#CWPREMIUM_GRADIENT);
      }

      .cls-1, .cls-2, .cls-3, .cls-4, .cls-5, .cls-6, .cls-7 {
        stroke-width: 0px;
      }

      .cls-2 {
        fill: url(#_Безымянный_градиент_1540);
      }

      .cls-3 {
        fill: url(#_Безымянный_градиент_1528-4);
      }

      .cls-4 {
        fill: url(#_Безымянный_градиент_1528-3);
      }

      .cls-5 {
        fill: url(#_Безымянный_градиент_1528-2);
      }

      .cls-6 {
        fill: url(#_Безымянный_градиент_1528-5);
      }

      .cls-7 {
        fill: url(#_Безымянный_градиент_1528);
      }
    </style>
    <linearGradient id="_Безымянный_градиент_1528" data-name="Безымянный градиент 1528" x1="66.2" y1="142.19" x2="39.89" y2="156.15" gradientUnits="userSpaceOnUse">
      <stop offset="0" stop-color="#ffd4f3"/>
      <stop offset="1" stop-color="#eed4ff"/>
    </linearGradient>
    <linearGradient id="_Безымянный_градиент_1540" data-name="Безымянный градиент 1540" x1="3.72" y1="140.76" x2="97.17" y2="55.49" gradientTransform="translate(-2.27 -2.14) rotate(-.99) scale(.98 1.04)" gradientUnits="userSpaceOnUse">
      <stop offset="0" stop-color="#5400ff"/>
      <stop offset="1" stop-color="#940067"/>
    </linearGradient>
    <linearGradient id="_Безымянный_градиент_1528-2" data-name="Безымянный градиент 1528" x1="43.81" y1="131.64" x2="27.54" y2="140.28" xlink:href="#_Безымянный_градиент_1528"/>
    <linearGradient id="_Безымянный_градиент_1528-3" data-name="Безымянный градиент 1528" x1="72.02" y1="122.96" x2="27.29" y2="146.71" xlink:href="#_Безымянный_градиент_1528"/>
    <linearGradient id="_Безымянный_градиент_1528-4" data-name="Безымянный градиент 1528" x1="66.8" y1="141.86" x2="39.34" y2="156.44" xlink:href="#_Безымянный_градиент_1528"/>
    <linearGradient id="_Безымянный_градиент_1528-5" data-name="Безымянный градиент 1528" x1="71.18" y1="130.31" x2="54.91" y2="138.95" xlink:href="#_Безымянный_градиент_1528"/>
    <linearGradient id="CWPREMIUM_GRADIENT" x1="84.98" y1="143.55" x2="214.29" y2="38.85" gradientUnits="userSpaceOnUse">
      <stop offset="0" stop-color="#00dcfe"/>
      <stop offset=".1" stop-color="#00d7fa"/>
      <stop offset=".2" stop-color="#00cbef"/>
      <stop offset=".3" stop-color="#00b7dd"/>
      <stop offset=".33" stop-color="#00b0d7"/>
      <stop offset=".39" stop-color="#17a0d6"/>
      <stop offset=".51" stop-color="#5378d3"/>
      <stop offset=".66" stop-color="#a543d0"/>
      <stop offset=".67" stop-color="#a943d0"/>
      <stop offset=".7" stop-color="#d243d0"/>
      <stop offset=".73" stop-color="#eb43d0"/>
      <stop offset=".75" stop-color="#f543d0"/>
    </linearGradient>
  </defs>
  <g>
    <path class="cls-7" d="M44.98,152.22l1.52-1.1.76-.55c.23-.16.45-.35.71-.47.19-.09.42-.13.62-.04.19.08.26.25.25.44-.01.21-.09.41-.11.63-.02.22.07.45.27.57.5.31,1.04-.18,1.43-.46.25-.18.51-.37.76-.55s.48-.36.73-.52c.19-.12.45-.26.67-.15.19.09.28.32.4.48.16.19.38.29.63.28s.5-.12.73-.24c.54-.29,1.08-.6,1.62-.9s1.09-.61,1.64-.92c.13-.08,1.26-.71,1.42-.79,1.72-.92,1.57-.98-.13-.13-.04.02-3.2,1.69-4.29,2.3-.24.13-.47.28-.73.36-.2.07-.45.09-.62-.07-.16-.15-.24-.36-.4-.51-.2-.18-.46-.21-.71-.13-.27.09-.49.26-.72.43-.25.18-.51.37-.76.55s-.5.36-.75.54c-.19.13-.41.28-.65.24-.09-.02-.18-.06-.23-.14s-.05-.17-.05-.25c.02-.21.1-.41.11-.63.02-.23-.06-.44-.24-.59s-.41-.19-.63-.16c-.27.04-.51.18-.74.33-.25.18-.49.36-.74.54l-1.52,1.1-.37.27c-.06.04-.08.11-.05.18.03.06.12.09.18.05h0Z"/>
    <g>
      <g id="_-Product-Icons" data-name="🔍-Product-Icons">
        <path id="_-Color" data-name="🎨-Color" class="cls-2" d="M80.98,106.33c6.99-.12,12.79,7.31,12.95,16.59l.12,6.76c.14,8.04-2.31,15.77-6.78,21.14-8.64,10.35-21.24,15.56-37.63,15.84-16.39.28-29.15-4.48-38.13-14.53-4.65-5.2-7.36-12.84-7.5-20.87l-.12-6.78c-.16-9.28,5.38-16.9,12.37-17.03l64.72-1.12ZM53.52,33.33c0,2.85,2.01,5.14,4.51,5.14h16.63c7.51,0,13.6,6.94,13.6,15.49v31c0,8.55-6.09,15.49-13.6,15.49H23.28c-7.51,0-13.6-6.93-13.6-15.49v-31c0-8.55,6.09-15.49,13.6-15.49h16.63c2.5,0,4.49-2.31,4.49-5.15l4.56,3.6M35.22,59.25c-4.22,0-7.64,3.42-7.64,7.64s3.42,7.64,7.64,7.64,7.64-3.42,7.64-7.64-3.42-7.64-7.64-7.64ZM62.71,59.25c-4.22,0-7.64,3.42-7.64,7.64s3.42,7.64,7.64,7.64,7.64-3.42,7.64-7.64-3.42-7.64-7.64-7.64Z"/>
      </g>
      <g>
        <path class="cls-5" d="M30.04,136.81c-.23-.41-.35-.84-.35-1.29,0-.48.12-.93.35-1.34s.54-.74.92-.97l4.66-2.83c.13-.08.28-.14.45-.17s.33-.05.5-.05c.53,0,.96.17,1.3.51s.51.77.51,1.3c0,.41-.11.76-.33,1.03-.22.27-.5.5-.83.68l-3.22,1.81,3.25,1.86c.33.18.6.41.82.67.21.26.32.6.32,1.02,0,.53-.17.96-.52,1.3s-.78.51-1.29.51c-.36,0-.69-.08-.97-.25l-4.64-2.83c-.38-.23-.69-.55-.92-.97Z"/>
        <path class="cls-4" d="M50.59,141.14s-1,.07-1.3,0c0,0,1.89-1.33,2.14-1.66s1.2-1.33,1.59-2.37c.4-1.05.7-1.45.7-1.45h-1.11l1.58-1.36s.66-.59.78-1.38c.12-.79.91-3.18.91-3.18l-.76-.21s1.16-1.73,1.21-3.63c.05-1.9.05-2.3,0-3.02s-.03-1.12-.03-1.12l-.98.65s.16-.68.21-1.13c.12-1.06-.01-1.61-.33-2.26s-.88-1.78-1.01-1.88c0,0-.9,1.98-1.05,2.66-.13.61-.27,2.09-.27,2.09l-.43-1.26-.25,1.3-.02.1s-.37,2.19-.34,2.46-.36-1.32-.36-1.32c0,0-.86,1.91-.76,3.78,0,0-.61-.79-.73-.81s-3.31,7.96-3.6,8.07c0,0,.28-1.41,0-1.54,0,0-2.67,4.24-2.99,4.82s-1.25,2.57-1.36,3.07-.38,1.12-.25,1.66.53,2.06.53,2.06l-.76-.44s.47,2.18.48,2.62.12,3.28.12,4.28.42,2.58.85,2.9c0,0-.42-1.94-.33-2.93s.4-3.53.4-3.53c0,0,.35-2.36.53-3s.71-2.34,1.13-3,2.08-3.26,2.21-3.44,2.51-3.87,2.51-3.87c0,0,1.46-2.65,1.66-3.28s1.1-2.91,1-3.02c0,0,0,1.03-.2,1.91-.06.25-.83,2.68-1.07,3.15s-1.05,2.06-1.3,2.46-2.81,4.12-2.81,4.12l-1.49,2.39s-.86,2.01-.95,2.69c0,0-.55,2.27-.53,2.55,0,0,.45.16.75.05s.7-.23.8-.31-.65-.66-.58-.72c0,0,1.3-.1,1.89-.58s1.91-1.13,2.94-2.64l1.03-1.5"/>
        <path class="cls-3" d="M44.92,152.59s-.07,0-.1-.01c-.14-.03-.25-.12-.32-.23-.12-.21-.06-.48.14-.63l1.97-1.43c.22-.16.44-.33.67-.49.22-.16.53-.34.89-.39.32-.03.64.04.89.23.27.21.4.53.38.89,0,.13-.03.25-.06.37-.02.09-.04.17-.05.26.1.04.27-.08.37-.15.21-.14.4-.29.6-.43l.98-.71c.21-.15.45-.33.74-.42.38-.12.77-.05,1.06.2.11.1.19.22.26.32.05.07.09.14.14.18.04.04.14.03.27,0,.17-.06.34-.15.52-.26l.14-.08c1.07-.6,4.21-2.26,4.3-2.31,1.34-.67,1.62-.82,1.81-.45.19.37-.08.51-1.36,1.2-.12.06-.7.39-1.09.6l-2.47,1.38c-.37.21-.74.42-1.12.62-.21.11-.52.26-.87.28-.38,0-.69-.13-.92-.41-.05-.06-.09-.13-.13-.19-.05-.08-.11-.18-.16-.2h0s-.07-.02-.32.13c-.17.11-.34.23-.5.35l-1.11.81c-.39.29-1.03.78-1.69.37-.3-.18-.46-.51-.43-.89,0-.12.03-.24.06-.37.02-.09.04-.17.05-.26,0-.08-.01-.09-.04-.1-.12-.05-.26,0-.33.04-.17.08-.33.21-.51.33l-.14.1c-.26.18-.51.37-.76.55l-1.52,1.1c-.08.05-.17.09-.27.09Z"/>
        <path class="cls-6" d="M67.9,134.2c.23.41.35.84.35,1.29s-.12.93-.35,1.34-.54.74-.92.97l-4.66,2.83c-.13.08-.28.14-.45.17s-.33.05-.5.05c-.53,0-.96-.17-1.3-.51s-.51-.77-.51-1.3c0-.41.11-.76.33-1.03.22-.27.5-.5.83-.68l3.22-1.81-3.25-1.86c-.33-.18-.6-.41-.82-.67-.21-.26-.32-.6-.32-1.02s.17-.96.52-1.3.78-.51,1.29-.51c.36,0,.69.08.97.25l4.64,2.83c.38.23.69.55.92.97Z"/>
      </g>
    </g>
  </g>
  <path class="cls-1" d="M125.97,13.36c.59-1.18,1.26-2.02,2.03-2.52s1.63-.75,2.6-.75c1.63,0,2.84.47,3.64,1.4.8.93,1.19,2.18,1.19,3.74v27.74c0,1.21-.37,2.18-1.12,2.91-.75.73-1.74,1.09-2.99,1.09s-2.18-.36-2.91-1.09c-.73-.73-1.09-1.7-1.09-2.91v-6c0-2.81-3.79-3.7-5.04-1.18l-.94,1.88c-.48.97-1.01,1.63-1.58,1.97s-1.25.52-2.05.52-1.51-.17-2.13-.52c-.62-.35-1.18-1-1.66-1.97l-.78-1.58c-1.24-2.53-5.04-1.64-5.04,1.17v5.7c0,1.21-.37,2.18-1.12,2.91s-1.74,1.09-2.99,1.09-2.18-.36-2.91-1.09c-.73-.73-1.09-1.7-1.09-2.91V15.23c0-1.56.4-2.81,1.2-3.74.8-.94,1.99-1.4,3.58-1.4.97,0,1.84.25,2.62.75.78.5,1.46,1.34,2.05,2.52l5.87,11.93c.97,1.98,3.79,1.98,4.77,0l5.87-11.93ZM160.28,45.9c-.71.71-1.65,1.06-2.83,1.06s-2.09-.33-2.75-.99c-.66-.66-.99-1.44-.99-2.34v-.1c-.49,1.11-1.22,1.96-2.21,2.54-.99.59-2.4.88-4.23.88-.9,0-1.81-.16-2.73-.47-.92-.31-1.74-.8-2.47-1.48-.73-.68-1.33-1.53-1.79-2.57-.47-1.04-.7-2.29-.7-3.74,0-1.35.24-2.54.73-3.56.49-1.02,1.16-1.87,2.03-2.54.87-.68,1.88-1.18,3.04-1.51s2.42-.49,3.77-.49h4.62v-.78c0-.62-.04-1.16-.13-1.61s-.28-.82-.57-1.12c-.29-.29-.71-.5-1.25-.62-.54-.12-1.25-.18-2.16-.18-.69,0-1.29.05-1.79.16-.5.1-1.05.35-1.64.73-.28.17-.57.36-.88.57-.31.21-.8.31-1.46.31-.9,0-1.66-.28-2.29-.83-.62-.55-.93-1.33-.93-2.34,0-.59.16-1.17.47-1.74.31-.57.88-1.12,1.71-1.64.87-.55,1.95-.95,3.25-1.19,1.3-.24,2.78-.36,4.44-.36s3.21.14,4.54.42c1.33.28,2.47.79,3.4,1.53s1.64,1.76,2.13,3.04c.48,1.28.73,2.93.73,4.93v13.25c0,1.14-.35,2.07-1.06,2.78ZM147.95,36.66c-.52.36-.78.98-.78,1.84,0,.76.28,1.34.83,1.74.55.4,1.33.6,2.34.6,1.32,0,2.22-.35,2.7-1.06.49-.71.73-1.67.73-2.88v-.78h-3.53c-1,0-1.77.18-2.29.55ZM167.48,45.51c-.97-.97-1.45-2.23-1.45-3.79V15.2c0-1.51.47-2.74,1.42-3.69.95-.95,2.2-1.42,3.76-1.42s2.68.37,3.51,1.1c.83.73,1.34,1.6,1.52,2.59l.07.43c1.18-1.51,2.51-2.58,3.97-3.19s3.03-.92,4.68-.92c1.56,0,3.06.22,4.5.67,1.44.45,2.72,1.21,3.83,2.27,1.11,1.06,2,2.48,2.66,4.26.66,1.77.99,4.01.99,6.7v17.73c0,1.56-.48,2.82-1.45,3.79s-2.28,1.45-3.94,1.45c-1.56,0-2.83-.48-3.79-1.45-.97-.97-1.45-2.23-1.45-3.79v-10.21c0-2.41-.33-2.8-.99-3.88-.66-1.09-1.84-1.63-3.55-1.63-1.84,0-3.16.57-3.94,1.7s-1.17,1.47-1.17,3.74v10.28c0,1.56-.49,2.82-1.45,3.79s-2.28,1.45-3.94,1.45c-1.56,0-2.82-.48-3.79-1.45ZM119.36,81.76c-.57.57-1.33.86-2.28.86s-1.69-.27-2.22-.8c-.53-.53-.8-1.16-.8-1.89v-.08c-.39.89-.98,1.58-1.78,2.05-.8.47-1.93.71-3.41.71-.73,0-1.46-.13-2.2-.38-.74-.25-1.4-.65-1.99-1.19-.59-.54-1.07-1.24-1.45-2.07-.38-.84-.57-1.84-.57-3.02,0-1.09.2-2.05.59-2.87.39-.82.94-1.51,1.63-2.05.7-.54,1.51-.95,2.45-1.21s1.95-.4,3.04-.4h3.73v-.63c0-.5-.03-.94-.1-1.3s-.22-.66-.46-.9c-.24-.24-.57-.4-1.01-.5-.43-.1-1.01-.15-1.74-.15-.56,0-1.04.04-1.45.13-.4.08-.84.28-1.32.59-.22.14-.46.29-.71.46-.25.17-.64.25-1.17.25-.73,0-1.34-.22-1.84-.67-.5-.45-.75-1.08-.75-1.89,0-.47.13-.94.38-1.4.25-.46.71-.9,1.38-1.32.7-.45,1.57-.77,2.62-.96,1.05-.2,2.24-.29,3.58-.29s2.59.11,3.67.34c1.08.22,1.99.64,2.74,1.24s1.33,1.42,1.72,2.45c.39,1.03.59,2.36.59,3.98v10.68c0,.92-.29,1.67-.86,2.24ZM109.41,74.14c-.42.29-.63.79-.63,1.49,0,.61.22,1.08.67,1.4.45.32,1.08.48,1.89.48,1.06,0,1.79-.29,2.18-.86.39-.57.59-1.35.59-2.32v-.63h-2.85c-.81,0-1.42.15-1.84.44ZM145.12,83.42c-.55,1.24-1.29,2.18-2.22,2.84-.93.66-2.01,1.09-3.25,1.3-1.24.21-2.56.32-3.96.32-1.1,0-2.05-.06-2.84-.18-.79-.12-1.48-.28-2.06-.48-.58-.2-1.08-.42-1.49-.66-.41-.24-.77-.49-1.08-.73-.34-.27-.63-.62-.87-1.03s-.37-.91-.37-1.49c0-.79.26-1.43.78-1.9.52-.47,1.16-.71,1.92-.71.43,0,.8.08,1.12.23.32.15.65.32.98.5.31.21.68.4,1.12.55.44.15,1.06.23,1.85.23s1.47-.04,2.02-.11c.55-.08.99-.24,1.33-.5s.58-.64.73-1.14c.15-.5.23-1.17.23-1.99v-.41c-1.16.88-2.59,1.33-4.3,1.33-1.47,0-2.75-.25-3.87-.76-1.11-.5-2.05-1.21-2.82-2.13-.76-.92-1.34-2.01-1.72-3.27-.38-1.27-.57-2.66-.57-4.19v-3.21c0-1.68.22-3.16.66-4.44.44-1.28,1.05-2.35,1.83-3.21.78-.85,1.72-1.5,2.82-1.95,1.1-.44,2.32-.66,3.66-.66.76,0,1.6.13,2.52.39.92.26,1.66.71,2.24,1.35l.09.09c.58-1.22,1.56-1.83,2.93-1.83,1.01,0,1.82.31,2.45.94.63.63.94,1.44.94,2.45v19.51c0,2.08-.27,3.73-.82,4.97ZM138.18,72.54c.47-.77.66-3.16.66-4.42v-3c0-1.46-.28-2.54-.84-3.24-.56-.7-1.51-1.05-2.85-1.05-1.44,0-2.42.39-2.93,1.18-.51.79-.76,1.98-.76,3.58v1.89c0,.72.03,1.37.11,1.95s.29,2.47.55,2.9c.26.43.64.77,1.13,1.01.49.24,1.14.36,1.95.36,1.51,0,2.5-.39,2.98-1.16ZM168.46,72.81c-.56.58-1.32.88-2.3.88h-8.15v.13c.06,1.17.29,2.11.71,2.82s1.25,1.07,2.51,1.07c.7,0,1.23-.07,1.59-.21.36-.14.66-.32.88-.54.31-.28.64-.51,1-.69s.78-.27,1.25-.27c.75,0,1.38.24,1.88.73s.75,1.12.75,1.9c0,.45-.11.91-.33,1.4-.22.49-.57.93-1.04,1.32-.19.14-.44.31-.73.5-.29.19-.68.38-1.15.54-.47.17-1.05.31-1.73.42-.68.11-1.48.17-2.4.17-1.64,0-3.06-.25-4.26-.75s-2.18-1.18-2.95-2.03-1.33-1.85-1.69-2.99-.54-2.37-.54-3.68v-2.93c0-3.23.78-5.6,2.34-7.1s3.71-2.26,6.44-2.26c2.87,0,5.05.77,6.54,2.3,1.49,1.53,2.24,3.72,2.24,6.56v.46c0,.92-.28,1.67-.84,2.26ZM158.79,67.27c-.38.52-.62,1.22-.73,2.11v.13h4.97v-.17c-.08-1.09-.33-1.83-.75-2.24-.42-.4-.99-.61-1.71-.61-.81,0-1.4.26-1.78.77ZM176.67,86.2c-.83-.83-1.24-1.9-1.24-3.23v-22.72c0-1.29.4-2.32,1.21-3.08.81-.77,1.93-1.15,3.38-1.15,1.17,0,2.09.28,2.78.85.69.56,1.13,1.25,1.33,2.05l.06.18c.76-1.09,1.7-1.87,2.81-2.36s2.31-.72,3.59-.72c1.37,0,2.43.18,3.17.54s1.18.58,1.3.66c.56.4,1.02.89,1.36,1.45s.51,1.25.51,2.05c0,1.29-.38,2.32-1.15,3.08-.77.77-1.79,1.15-3.08,1.15-.44,0-.88-.09-1.3-.27-.42-.18-.86-.37-1.3-.57-.2-.08-.42-.16-.66-.24-.24-.08-.52-.12-.85-.12-1.29,0-2.3.46-3.02,1.39s-1.09,2.42-1.09,4.47v13.35c0,1.33-.41,2.41-1.24,3.23s-1.94,1.24-3.35,1.24c-1.33,0-2.41-.41-3.23-1.24ZM195.61,99.45c-.89-.84-2.14-1.27-3.73-1.27-1.42,0-2.52.43-3.32,1.3s-1.34,2.06-1.61,3.56l-3.87,19.57c-.41,2.07-3.33,2.19-3.91.16l-5.59-19.53c-.59-1.92-1.34-3.24-2.23-3.97-.89-.73-2-1.1-3.32-1.1-1.46,0-2.66.38-3.6,1.13-.94.75-1.66,2.02-2.16,3.8l-5.42,19.39c-.57,2.04-3.49,1.93-3.91-.15l-3.97-19.79c-.55-2.92-2.12-4.38-4.73-4.38-1.6,0-2.85.45-3.77,1.34-.91.89-1.37,2.11-1.37,3.67,0,.73.09,1.44.27,2.12l8.29,36.17c.41,1.83,1.11,3.15,2.09,3.97.98.82,2.2,1.23,3.67,1.23s2.64-.35,3.67-1.06c1.03-.71,1.79-1.98,2.3-3.8l7.42-26.49c.32-1.15,1.95-1.15,2.27,0l7.37,26.55c.91,3.2,2.92,4.8,6.03,4.8,1.46,0,2.69-.41,3.7-1.23,1-.82,1.74-2.17,2.19-4.04l8.29-36.38c.18-.69.27-1.37.27-2.06,0-1.51-.45-2.68-1.34-3.53ZM133.99,132.19s0,0,0,0c-.19-.39-.44-.74-.76-1.03-.78-.71-1.78-1.06-3.01-1.06s-2.2.34-2.77,1.03c-.57.69-1.04,1.51-1.4,2.47-.5,1.6-1.29,2.83-2.36,3.7s-2.93,1.3-5.58,1.3c-2.79,0-4.9-1.03-6.34-3.08s-2.16-5.3-2.16-9.73v-6.71c0-4.52.72-7.79,2.16-9.8s3.55-3.01,6.34-3.01c2.42,0,4.21.4,5.38,1.2s2,2.04,2.5,3.73c.41,1.05.92,1.85,1.54,2.4.62.55,1.56.82,2.84.82s2.34-.39,3.05-1.16c.71-.78,1.06-1.83,1.06-3.15s-.33-2.76-.99-4.18c-.66-1.42-1.66-2.69-2.98-3.84s-3.03-2.08-5.1-2.81c-2.08-.73-4.51-1.1-7.3-1.1s-5.08.4-7.3,1.2c-2.22.8-4.12,2.06-5.72,3.77-1.6,1.71-2.84,3.88-3.73,6.51-.89,2.63-1.34,5.77-1.34,9.42v6.71c0,3.61.45,6.73,1.34,9.35.89,2.63,2.14,4.8,3.73,6.51,1.6,1.71,3.51,2.98,5.72,3.8s4.65,1.23,7.3,1.23,4.85-.34,6.89-1.03c1.66-.56,3.09-1.28,4.33-2.15-.47,1.21-.82,2.32-.97,3.18-.69,4.05,3.13,7.47,6.73,6.89,2.87-.46,4.98-3.13,4.89-6.14-.08-2.49-5.96-15.24-5.96-15.24ZM121.5,188.62c-.59-.59-.89-1.38-.89-2.35v-21.45c0-.97.3-1.75.89-2.35.59-.59,1.38-.89,2.35-.89h6.52c3.32,0,5.89.59,7.71,1.78,1.82,1.19,2.73,3.06,2.73,5.62,0,1.46-.29,2.63-.87,3.52-.17.26-.36.52-.57.76-.71.84-.64,2.09.18,2.83.41.37.77.78,1.08,1.23.71,1.05,1.07,2.44,1.07,4.17,0,1.11-.2,2.15-.59,3.12-.39.97-1,1.82-1.84,2.55s-1.92,1.3-3.24,1.72-2.92.63-4.78.63h-7.41c-.97,0-1.75-.3-2.35-.89ZM133.15,171.6c.62-.42.93-1.03.93-1.84,0-.41-.06-.78-.18-1.11-.12-.34-.35-.61-.69-.83-.34-.21-.8-.38-1.4-.5-.59-.12-1.35-.18-2.27-.18h0c-1.23,0-2.23,1-2.23,2.23v.65c0,1.23,1,2.23,2.23,2.23h.61c1.38,0,2.38-.21,3-.63ZM134.98,180.85c0-1.13-.4-1.92-1.19-2.37s-2.04-.67-3.74-.67h-.49c-1.23,0-2.23,1-2.23,2.23v1.66c0,1.23,1,2.23,2.23,2.23h.97c2.97,0,4.45-1.03,4.45-3.08ZM161.43,184.39c-.34,1.15-.87,2.13-1.6,2.95-.73.82-1.65,1.46-2.77,1.9-1.12.44-2.46.67-4.03.67s-2.87-.22-3.99-.67c-1.12-.45-2.04-1.08-2.77-1.9-.73-.82-1.27-1.81-1.62-2.95-.35-1.15-.53-2.43-.53-3.86v-2.35c0-3.1.77-5.43,2.31-6.98,1.54-1.55,3.74-2.33,6.6-2.33s5.09.78,6.62,2.33c1.52,1.55,2.29,3.88,2.29,6.98v2.35c0,1.43-.17,2.72-.51,3.86ZM154.53,184.47c.38-.23.67-.55.87-.95.2-.4.33-.88.38-1.44.05-.55.08-1.17.08-1.84v-1.78c0-1.51-.2-2.64-.59-3.38-.39-.74-1.14-1.11-2.25-1.11s-1.86.37-2.25,1.11c-.39.74-.59,1.87-.59,3.38v1.78c0,.67.03,1.29.08,1.84.05.55.18,1.03.38,1.44.2.41.49.72.87.95.38.23.88.34,1.5.34s1.12-.11,1.5-.34ZM163.82,169.98c.45-.47,1.03-.71,1.76-.71h.57v-1.86c0-.89.28-1.61.83-2.17.55-.55,1.3-.83,2.25-.83.89,0,1.61.28,2.17.83.55.55.83,1.27.83,2.17v.24c0,.89.72,1.62,1.62,1.62h0c.73,0,1.32.23,1.76.69.45.46.67,1.12.67,1.98,0,.73-.22,1.32-.67,1.76-.45.44-1.03.67-1.76.67h0c-.89,0-1.62.72-1.62,1.62v6.35c0,.73.11,1.29.32,1.7s.62.61,1.21.61h.16c.81,0,1.43.24,1.86.71.43.47.65,1.06.65,1.76,0,.84-.26,1.51-.79,2.02s-1.48.77-2.85.77h-.49c-.89,0-1.71-.09-2.47-.26s-1.4-.51-1.94-.99-.96-1.17-1.28-2.06c-.31-.89-.46-2.05-.46-3.48v-8.74h-.57c-.73,0-1.32-.22-1.76-.67-.45-.45-.67-1.06-.67-1.84s.22-1.41.67-1.88Z"/>
</svg>