<?xml version="1.0" standalone="no"?>
<!DOCTYPE svg PUBLIC "-//W3C//DTD SVG 20010904//EN"
 "http://www.w3.org/TR/2001/REC-SVG-20010904/DTD/svg10.dtd">
<svg version="1.0" xmlns="http://www.w3.org/2000/svg"
 width="700.000000pt" height="700.000000pt" viewBox="0 0 700.000000 700.000000"
 preserveAspectRatio="xMidYMid meet">
<metadata>
Created by potrace 1.14, written by Peter Selinger 2001-2017
</metadata>
<g transform="translate(0.000000,700.000000) scale(0.100000,-0.100000)"
fill="#000000" stroke="none">
<path d="M3205 6934 c-121 -12 -346 -48 -460 -74 -631 -140 -1220 -465 -1680
-925 -460 -460 -785 -1049 -925 -1680 -65 -290 -74 -388 -74 -755 0 -367 9
-465 74 -755 101 -455 308 -910 584 -1283 589 -798 1477 -1300 2461 -1392 143
-13 489 -13 635 1 805 74 1552 428 2128 1008 559 562 907 1309 982 2106 13
142 13 488 0 630 -92 987 -600 1881 -1399 2467 -377 275 -845 486 -1291 582
-263 57 -375 68 -695 71 -165 2 -318 1 -340 -1z m198 -644 c49 -39 92 -70 96
-70 4 0 48 32 97 70 49 39 92 70 96 70 5 0 8 -12 8 -27 1 -63 62 -149 123
-172 18 -7 169 -11 425 -11 447 0 486 -5 603 -66 171 -90 296 -276 329 -491 7
-45 10 -323 8 -823 l-3 -755 -24 -70 c-73 -219 -222 -380 -406 -438 l-70 -22
-1185 0 -1185 0 -70 22 c-155 49 -280 160 -358 318 -74 151 -72 118 -72 995 0
727 1 790 18 849 55 192 172 343 331 423 105 53 152 58 591 58 371 0 403 1
435 19 49 26 88 79 102 139 7 29 15 52 18 52 3 0 45 -32 93 -70z m1582 -3075
c191 -50 348 -226 415 -467 47 -168 53 -639 11 -851 -24 -120 -66 -246 -117
-352 -150 -315 -501 -611 -899 -760 -529 -198 -1275 -201 -1794 -9 -226 84
-438 217 -613 383 -169 161 -272 320 -342 532 -50 149 -65 232 -77 424 -15
233 -7 466 21 575 58 234 209 416 390 471 62 19 132 21 1355 43 1648 30 1578
29 1650 11z"/>
<path d="M2813 5236 c-185 -60 -281 -268 -204 -442 26 -58 95 -130 156 -162
44 -24 62 -27 145 -27 84 0 101 3 146 27 67 35 138 115 161 181 55 161 -23
342 -175 410 -59 25 -171 32 -229 13z"/>
<path d="M3993 5236 c-92 -30 -157 -89 -199 -181 -34 -73 -38 -163 -11 -242
23 -66 94 -146 161 -181 45 -24 62 -27 146 -27 83 0 101 3 145 27 61 32 130
104 156 162 68 156 -3 346 -157 422 -67 33 -175 42 -241 20z"/>
<path d="M3702 2698 c-11 -29 -24 -71 -27 -93 -6 -32 -9 -36 -15 -20 -6 18 -7
17 -13 -5 -3 -14 -9 -47 -13 -75 -5 -38 -9 -45 -14 -30 -7 18 -9 17 -20 -10
-6 -16 -14 -51 -17 -78 -5 -41 -7 -45 -19 -30 -7 10 -14 16 -17 13 -3 -3 -29
-63 -60 -135 -30 -71 -61 -143 -68 -159 -13 -29 -14 -29 -19 -5 -5 20 -15 8
-71 -81 -115 -184 -147 -273 -125 -359 7 -28 6 -33 -6 -29 -12 5 -13 -3 -6
-46 4 -28 11 -112 16 -187 5 -74 14 -144 20 -155 8 -15 10 -3 5 51 -6 86 19
280 51 379 15 48 53 119 116 216 133 207 160 255 197 345 37 93 44 71 9 -31
-33 -97 -67 -162 -158 -297 -97 -143 -132 -212 -152 -297 -20 -84 -20 -100 2
-100 31 0 47 16 34 33 -10 12 -7 16 20 21 51 10 135 73 179 135 l40 56 -26 3
c-25 3 -25 4 19 38 47 36 89 91 119 157 21 46 21 47 1 47 -11 0 -2 16 30 50
25 27 46 58 46 68 0 10 8 44 19 74 16 47 17 56 4 64 -12 8 -11 16 8 59 19 40
24 73 27 163 4 112 4 114 -16 103 -20 -11 -21 -9 -19 42 1 39 -5 68 -22 105
-14 29 -28 52 -32 52 -3 0 -16 -24 -27 -52z"/>
<path d="M3981 2191 c-30 -30 -36 -66 -17 -96 9 -13 52 -45 97 -71 l80 -46
-78 -45 c-96 -54 -117 -76 -109 -118 8 -39 40 -65 80 -65 28 0 99 38 243 130
35 23 57 71 49 112 -8 44 -47 80 -165 152 -110 68 -149 78 -180 47z"/>
<path d="M2831 2135 c-128 -78 -151 -100 -157 -151 -8 -60 23 -95 155 -175
121 -73 164 -85 193 -51 50 56 30 99 -72 158 -44 26 -80 49 -80 53 0 3 35 26
78 51 90 53 112 82 93 127 -13 32 -48 54 -84 52 -12 0 -69 -29 -126 -64z"/>
<path d="M3919 1457 c-35 -19 -97 -51 -137 -72 l-73 -38 -34 18 -34 19 -55
-37 c-31 -20 -57 -37 -60 -37 -2 0 -6 13 -9 29 -7 33 -39 46 -72 28 -60 -34
-134 -94 -135 -109 0 -29 26 -21 91 27 34 25 65 45 70 45 5 0 9 -10 9 -23 0
-56 44 -61 112 -11 l49 37 33 -18 34 -18 124 67 c152 83 177 101 162 116 -8 8
-29 1 -75 -23z"/>
</g>
</svg>
